<svg width="879" height="268" viewBox="0 0 879 268" fill="none" xmlns="http://www.w3.org/2000/svg">
<mask id="path-1-outside-1_62_160" maskUnits="userSpaceOnUse" x="0" y="0" width="879" height="268" fill="black">
<rect fill="white" width="879" height="268"/>
<path d="M126.891 9.26137H137.9V74.2472C137.9 80.0474 136.834 84.9746 134.704 89.0288C132.573 93.083 129.569 96.1606 125.693 98.2617C121.816 100.363 117.244 101.413 111.976 101.413C107.005 101.413 102.581 100.511 98.7041 98.7056C94.8274 96.8709 91.7793 94.2667 89.5599 90.8931C87.3404 87.5195 86.2307 83.5097 86.2307 78.8636H97.0617C97.0617 81.4382 97.6979 83.6873 98.9704 85.6108C100.272 87.5047 102.048 88.9844 104.297 90.0497C106.546 91.1151 109.106 91.6477 111.976 91.6477C115.143 91.6477 117.836 90.9819 120.055 89.6502C122.275 88.3185 123.962 86.3654 125.116 83.7908C126.299 81.1867 126.891 78.0054 126.891 74.2472V9.26137ZM187.127 101.591C180.558 101.591 174.891 100.141 170.126 97.2408C165.391 94.3111 161.737 90.2273 159.162 84.9893C156.617 79.7218 155.345 73.5961 155.345 66.6122C155.345 59.6283 156.617 53.473 159.162 48.1463C161.737 42.79 165.317 38.6174 169.904 35.6286C174.521 32.6101 179.907 31.1009 186.062 31.1009C189.613 31.1009 193.12 31.6927 196.582 32.8764C200.045 34.0601 203.196 35.9837 206.037 38.647C208.878 41.2808 211.142 44.7727 212.829 49.1229C214.515 53.473 215.359 58.8293 215.359 65.1918V69.6307H162.802V60.5753H204.705C204.705 56.7282 203.936 53.2955 202.397 50.277C200.888 47.2585 198.728 44.8763 195.916 43.1303C193.135 41.3844 189.85 40.5114 186.062 40.5114C181.889 40.5114 178.279 41.5471 175.231 43.6186C172.213 45.6605 169.89 48.3239 168.262 51.6087C166.634 54.8935 165.821 58.415 165.821 62.1733V68.2102C165.821 73.3594 166.708 77.7243 168.484 81.305C170.289 84.8562 172.79 87.5639 175.986 89.4283C179.182 91.263 182.896 92.1804 187.127 92.1804C189.879 92.1804 192.365 91.7957 194.585 91.0263C196.834 90.2273 198.772 89.0436 200.4 87.4752C202.027 85.8771 203.285 83.8944 204.173 81.527L214.294 84.3679C213.228 87.8007 211.438 90.8191 208.922 93.4233C206.407 95.9979 203.3 98.0102 199.601 99.4602C195.902 100.881 191.744 101.591 187.127 101.591ZM261.657 31.9886V40.8665H224.903V31.9886H261.657ZM235.911 100.17V22.5781C235.911 18.6719 236.828 15.4167 238.663 12.8125C240.498 10.2083 242.88 8.25521 245.81 6.95312C248.74 5.65104 251.832 5 255.087 5C257.662 5 259.763 5.20715 261.39 5.62145C263.018 6.03575 264.231 6.42046 265.03 6.77557L262.012 15.831C261.479 15.6534 260.739 15.4315 259.792 15.1651C258.875 14.8988 257.662 14.7656 256.153 14.7656C252.69 14.7656 250.19 15.6386 248.651 17.3846C247.142 19.1306 246.387 21.6903 246.387 25.0639V100.17H235.911ZM306.701 31.9886V40.8665H269.947V31.9886H306.701ZM280.955 100.17V22.5781C280.955 18.6719 281.872 15.4167 283.707 12.8125C285.542 10.2083 287.924 8.25521 290.854 6.95312C293.784 5.65104 296.876 5 300.131 5C302.706 5 304.807 5.20715 306.434 5.62145C308.062 6.03575 309.275 6.42046 310.074 6.77557L307.056 15.831C306.523 15.6534 305.783 15.4315 304.836 15.1651C303.919 14.8988 302.706 14.7656 301.197 14.7656C297.734 14.7656 295.234 15.6386 293.695 17.3846C292.185 19.1306 291.431 21.6903 291.431 25.0639V100.17H280.955ZM328.13 125.739C326.354 125.739 324.771 125.591 323.38 125.295C321.989 125.028 321.027 124.762 320.495 124.496L323.158 115.263C325.703 115.914 327.952 116.151 329.905 115.973C331.858 115.795 333.59 114.922 335.099 113.354C336.638 111.815 338.043 109.315 339.316 105.852L341.269 100.526L316.056 31.9886H327.419L346.24 86.321H346.951L365.772 31.9886H377.135L348.194 110.114C346.891 113.635 345.279 116.55 343.355 118.858C341.432 121.196 339.197 122.927 336.652 124.052C334.137 125.176 331.296 125.739 328.13 125.739ZM427.539 100.17V9.26137H438.548V49.7443H487.021V9.26137H498.029V100.17H487.021V59.5099H438.548V100.17H427.539ZM561.617 72.294V31.9886H572.093V100.17H561.617V88.6293H560.907C559.309 92.0916 556.823 95.0361 553.449 97.4627C550.076 99.8597 545.814 101.058 540.665 101.058C536.404 101.058 532.616 100.126 529.302 98.2617C525.987 96.3678 523.383 93.5269 521.489 89.739C519.595 85.9215 518.648 81.1127 518.648 75.3125V31.9886H529.124V74.6023C529.124 79.5739 530.515 83.5393 533.297 86.4986C536.108 89.4579 539.689 90.9375 544.039 90.9375C546.643 90.9375 549.291 90.2717 551.984 88.94C554.707 87.6083 556.986 85.5664 558.82 82.8143C560.685 80.0621 561.617 76.5554 561.617 72.294ZM611.344 101.768C607.023 101.768 603.102 100.955 599.581 99.3271C596.059 97.6699 593.263 95.2876 591.191 92.1804C589.12 89.0436 588.084 85.2557 588.084 80.8168C588.084 76.9105 588.853 73.7441 590.392 71.3175C591.931 68.8613 593.988 66.9377 596.562 65.5469C599.137 64.156 601.978 63.1203 605.085 62.4396C608.222 61.7294 611.373 61.1671 614.54 60.7528C618.683 60.2202 622.042 59.8207 624.616 59.5543C627.22 59.2584 629.114 58.7701 630.298 58.0895C631.511 57.4089 632.118 56.2251 632.118 54.5384V54.1832C632.118 49.8035 630.92 46.4003 628.523 43.9737C626.155 41.5471 622.56 40.3338 617.736 40.3338C612.735 40.3338 608.814 41.4287 605.973 43.6186C603.132 45.8085 601.134 48.1463 599.98 50.6321L590.037 47.081C591.813 42.938 594.18 39.7124 597.139 37.4041C600.128 35.0663 603.383 33.4387 606.905 32.5213C610.456 31.5743 613.948 31.1009 617.381 31.1009C619.571 31.1009 622.086 31.3672 624.927 31.8999C627.798 32.4029 630.564 33.4535 633.228 35.0515C635.921 36.6495 638.155 39.0613 639.931 42.2869C641.706 45.5126 642.594 49.8331 642.594 55.2486V100.17H632.118V90.9375H631.585C630.875 92.4171 629.691 94.0004 628.034 95.6871C626.377 97.3739 624.172 98.8092 621.42 99.9929C618.668 101.177 615.309 101.768 611.344 101.768ZM612.942 92.358C617.085 92.358 620.577 91.5442 623.418 89.9166C626.288 88.289 628.449 86.1879 629.899 83.6133C631.378 81.0387 632.118 78.331 632.118 75.4901V65.902C631.674 66.4347 630.698 66.9229 629.188 67.3668C627.709 67.7811 625.992 68.151 624.039 68.4766C622.116 68.7725 620.237 69.0388 618.402 69.2756C616.597 69.4827 615.132 69.6603 614.007 69.8082C611.285 70.1634 608.74 70.7404 606.372 71.5394C604.034 72.3088 602.141 73.4778 600.69 75.0462C599.27 76.585 598.56 78.6861 598.56 81.3494C598.56 84.9893 599.906 87.7415 602.599 89.6058C605.322 91.4406 608.769 92.358 612.942 92.358ZM672.19 59.1548V100.17H661.715V31.9886H671.835V42.6421H672.723C674.321 39.1797 676.748 36.398 680.003 34.2969C683.258 32.1662 687.46 31.1009 692.609 31.1009C697.226 31.1009 701.265 32.0478 704.728 33.9418C708.19 35.8061 710.883 38.647 712.807 42.4645C714.73 46.2524 715.692 51.0464 715.692 56.8466V100.17H705.216V57.5568C705.216 52.2005 703.825 48.0279 701.043 45.0391C698.262 42.0206 694.444 40.5114 689.591 40.5114C686.247 40.5114 683.258 41.2364 680.624 42.6864C678.02 44.1365 675.963 46.2524 674.454 49.0341C672.945 51.8158 672.19 55.1894 672.19 59.1548ZM762.356 127.159C757.296 127.159 752.945 126.508 749.306 125.206C745.666 123.933 742.632 122.247 740.206 120.146C737.809 118.074 735.9 115.855 734.48 113.487L742.825 107.628C743.772 108.871 744.97 110.291 746.42 111.889C747.87 113.517 749.853 114.922 752.368 116.106C754.913 117.319 758.243 117.926 762.356 117.926C767.86 117.926 772.403 116.594 775.983 113.931C779.564 111.268 781.355 107.095 781.355 101.413V87.5639H780.467C779.697 88.8068 778.602 90.3457 777.182 92.1804C775.791 93.9856 773.779 95.5984 771.145 97.0188C768.541 98.4097 765.019 99.1051 760.58 99.1051C755.076 99.1051 750.134 97.803 745.754 95.1989C741.404 92.5947 737.957 88.8068 735.412 83.8352C732.896 78.8636 731.639 72.8267 731.639 65.7244C731.639 58.7405 732.867 52.6592 735.323 47.4805C737.779 42.2721 741.197 38.2475 745.577 35.4066C749.957 32.5361 755.017 31.1009 760.758 31.1009C765.197 31.1009 768.718 31.8407 771.323 33.3203C773.956 34.7704 775.969 36.4276 777.359 38.2919C778.78 40.1267 779.875 41.6359 780.644 42.8196H781.71V31.9886H791.83V102.124C791.83 107.983 790.499 112.747 787.835 116.417C785.202 120.116 781.65 122.824 777.182 124.54C772.743 126.286 767.801 127.159 762.356 127.159ZM762.001 89.6946C766.203 89.6946 769.754 88.7328 772.654 86.8093C775.554 84.8858 777.759 82.1189 779.268 78.5085C780.777 74.8982 781.532 70.5777 781.532 65.5469C781.532 60.6345 780.792 56.2991 779.313 52.5408C777.833 48.7826 775.643 45.8381 772.743 43.7074C769.843 41.5767 766.262 40.5114 762.001 40.5114C757.562 40.5114 753.863 41.6359 750.904 43.8849C747.974 46.134 745.769 49.1525 744.29 52.9403C742.84 56.7282 742.115 60.9304 742.115 65.5469C742.115 70.2817 742.854 74.4691 744.334 78.109C745.843 81.7193 748.063 84.5603 750.992 86.6318C753.952 88.6737 757.621 89.6946 762.001 89.6946ZM83.125 191.045V207.045H91.25V191.045H83.125ZM98 164.295C96.625 169.67 93.625 177.67 91.375 182.67L97.125 184.795C99.625 180.17 102.75 172.92 105.625 166.795L98 164.295ZM70.125 167.295C72.625 172.67 75 180.045 75.625 184.67L82.125 182.295C81.375 177.795 79 170.545 76.125 165.17L70.125 167.295ZM55.375 152.17V261.42H63.875V160.545H115.25V152.17H55.375ZM111.75 152.17V250.67C111.75 252.42 111.25 252.92 109.5 253.045C107.875 253.045 102.25 253.17 96.625 252.92C97.75 255.295 99 259.045 99.25 261.295C107.375 261.295 112.75 261.045 116 259.795C119.375 258.295 120.375 255.795 120.375 250.67V152.17H111.75ZM68.625 184.42V191.795H106.875V184.42H68.625ZM67.625 204.92V212.295H107.625V204.92H67.625ZM72.875 209.045V229.92C72.875 238.92 74.875 241.92 83.75 241.92C85.375 241.92 96.125 241.92 98.375 241.92C101.375 241.92 104.25 241.92 105.875 241.295C105.625 239.42 105.375 235.92 105.125 233.795C103.5 234.17 100.125 234.295 98.25 234.295C96.125 234.295 86 234.295 83.75 234.295C81.375 234.295 81 233.295 81 230.045V209.045H72.875ZM28.25 146.295C25 154.545 19.125 166.795 14.625 174.045L21 176.795C25.875 169.92 31.75 158.67 36.5 149.42L28.25 146.295ZM42.25 160.545C35.375 173.67 23.625 192.295 14.25 203.42L20 206.67C29.375 195.795 41.5 178.045 50.125 164.17L42.25 160.545ZM8.25 172.295C14.875 178.67 22.375 187.545 25.5 193.545L30.875 186.545C27.625 180.795 20 172.42 13.25 166.295L8.25 172.295ZM37.375 189.17C42.375 197.42 47.25 208.545 48.875 215.545L56.25 212.17C54.5 205.295 49.375 194.545 44.125 186.295L37.375 189.17ZM7.25 201.545L8.25 209.92C19.625 209.17 34.625 208.295 49.5 207.295V199.42C33.75 200.295 18.125 201.045 7.25 201.545ZM40.625 219.42C43.625 226.67 46.25 236.17 47 242.295L54.25 240.045C53.375 233.92 50.75 224.545 47.5 217.295L40.625 219.42ZM14.75 217.67C13.375 228.545 11 239.795 7 247.42C8.875 248.295 12.625 249.92 14.125 250.92C18.125 242.92 21 230.92 22.625 219.045L14.75 217.67ZM28 205.17V261.17H36.25V205.17H28ZM160.5 198.795H223.625V210.295H160.5V198.795ZM160.5 217.545H223.625V229.045H160.5V217.545ZM160.5 180.295H223.625V191.545H160.5V180.295ZM150.75 172.795V236.545H233.625V172.795H150.75ZM200.5 244.795C215.125 249.795 230 256.42 238.875 261.295L247.625 254.92C237.875 250.045 221.875 243.545 207.125 238.67L200.5 244.795ZM138.875 152.67V161.295H243.25V152.67H138.875ZM186.5 156.295C185.75 162.045 183.875 170.42 182.125 175.92L191 177.545C193 172.42 195.375 164.795 197.5 157.67L186.5 156.295ZM173.625 238.045C165 243.795 147.875 250.295 134.375 253.92C136.5 255.92 139.375 259.17 140.875 261.17C154.25 257.42 171.25 250.795 182.125 244.17L173.625 238.045ZM260.375 165.92V174.67H372.125V165.92H260.375ZM273.25 206.17V213.545H308.25V206.17H273.25ZM273.25 226.17V233.545H308.25V226.17H273.25ZM329.125 186.92V238.295H338V186.92H329.125ZM304.875 185.795V250.295C304.875 251.92 304.375 252.42 302.625 252.545C300.875 252.67 295.125 252.67 288.875 252.42C290.125 254.795 291.5 258.295 292 260.67C300.5 260.67 306 260.67 309.375 259.17C312.875 257.67 314 255.17 314 250.42V185.795H304.875ZM354.5 183.17V249.545C354.5 251.295 353.875 251.795 351.875 251.92C349.75 252.045 343 252.045 335.375 251.795C336.75 254.295 338.25 258.295 338.75 260.795C348.5 260.795 354.75 260.545 358.625 259.17C362.5 257.67 363.75 255.045 363.75 249.545V183.17H354.5ZM279.75 149.295C284.5 154.67 289.625 162.295 291.625 167.045L300.875 163.67C298.5 158.795 293.25 151.42 288.375 146.045L279.75 149.295ZM344 145.67C340.875 152.42 335.25 162.045 330.75 168.045L339 171.17C343.625 165.295 349.25 156.67 354 148.92L344 145.67ZM268.25 185.795V260.545H277.125V193.92H307.875V185.795H268.25ZM425.875 191.545V200.045H498.5V191.545H425.875ZM449.25 214.92V259.795H456.75V214.92H449.25ZM468.25 214.92V259.545H475.875V214.92H468.25ZM457.25 146.42V178.67H466.25V146.42H457.25ZM429.75 211.67V261.045H438.25V219.795H492V211.67H429.75ZM487.375 211.67V252.295C487.375 253.42 487 253.795 486 253.795C485 253.92 481.875 253.92 478.25 253.795C479.375 255.92 480.5 259.045 480.875 261.295C486.5 261.295 490 261.295 492.75 259.795C495.25 258.67 495.875 256.42 495.875 252.42V211.67H487.375ZM457.25 194.295C456.5 200.17 454.875 208.92 453.375 214.67L461.375 216.795C463.375 211.67 465.625 203.67 468 196.545L457.25 194.295ZM431.25 152.545V182.17H494.25V152.545H485.25V173.92H440V152.545H431.25ZM385.125 171.295V179.92H424.625V171.295H385.125ZM400.875 147.795V175.545H409.375V147.795H400.875ZM382.75 235.67L385 244.92C397 242.045 412.75 238.295 427.75 234.42L426.875 226.295C410.75 229.795 394.125 233.545 382.75 235.67ZM387.875 186.045C390.5 198.795 392.5 215.42 392.5 226.42L400.25 225.17C400.125 214.17 398 197.67 395.125 184.795L387.875 186.045ZM412.875 183.67C411.75 197.545 408.75 217.545 406 229.295L413 231.17C416 219.545 419.375 200.17 421.75 185.545L412.875 183.67ZM516.75 160.295V170.045H616.25V160.295H516.75ZM510.125 242.295V251.67H622.5V242.295H510.125ZM560.625 165.17V246.17H571.125V165.17H560.625ZM709.25 205.17V255.17H718.5V205.17H709.25ZM681.75 201.795V210.045H746.375V201.795H681.75ZM676.375 249.545V257.92H749.125V249.545H676.375ZM684.75 225.045V233.17H743.5V225.045H684.75ZM695.25 159.545H732.875V182.67H695.25V159.545ZM686.5 151.42V190.795H742V151.42H686.5ZM655.25 156.545V260.92H664.375V156.545H655.25ZM634.75 181.42V190.295H680.125V181.42H634.75ZM655.75 184.795C651.25 200.295 641.25 219.795 632.25 229.795C633.875 231.92 636.125 235.795 637 238.42C646.625 226.795 656.625 204.92 661.625 187.295L655.75 184.795ZM673.75 148.045C664.625 152.295 648.125 155.795 634 158.17C635.125 160.295 636.375 163.295 636.875 165.42C651.375 163.42 668.875 159.92 680.375 155.295L673.75 148.045ZM664 197.545L659.625 201.295C663.5 205.67 672.875 217.545 675.875 222.67L681.375 215.295C678.875 212.17 667.125 200.295 664 197.545ZM767.5 165.045V173.17H792.875V191.545H767.5V199.795H801.375V165.045H767.5ZM767.625 211.295V219.42H794.125V240.92H767.625V248.92H802.5V211.295H767.625ZM763.75 165.045V257.42H772.25V165.045H763.75ZM806.25 152.795V161.42H873.125V152.795H806.25ZM779.625 146.17C778.375 152.42 775.625 161.545 773.375 167.545L780.75 169.17C783.75 163.67 787.125 155.045 789.875 147.67L779.625 146.17ZM835.125 156.42V261.045H844V156.42H835.125ZM811 176.795V242.42H819.625V185.295H865.125V176.795H811ZM860.625 176.795V232.42C860.625 233.67 860.25 234.17 858.875 234.17C857.75 234.17 853.75 234.17 849 234.045C850.25 236.42 851.5 239.92 851.75 242.295C858.5 242.295 862.875 242.295 865.75 240.795C868.75 239.295 869.5 236.795 869.5 232.545V176.795H860.625Z"/>
</mask>
<path d="M126.891 9.26137H137.9V74.2472C137.9 80.0474 136.834 84.9746 134.704 89.0288C132.573 93.083 129.569 96.1606 125.693 98.2617C121.816 100.363 117.244 101.413 111.976 101.413C107.005 101.413 102.581 100.511 98.7041 98.7056C94.8274 96.8709 91.7793 94.2667 89.5599 90.8931C87.3404 87.5195 86.2307 83.5097 86.2307 78.8636H97.0617C97.0617 81.4382 97.6979 83.6873 98.9704 85.6108C100.272 87.5047 102.048 88.9844 104.297 90.0497C106.546 91.1151 109.106 91.6477 111.976 91.6477C115.143 91.6477 117.836 90.9819 120.055 89.6502C122.275 88.3185 123.962 86.3654 125.116 83.7908C126.299 81.1867 126.891 78.0054 126.891 74.2472V9.26137ZM187.127 101.591C180.558 101.591 174.891 100.141 170.126 97.2408C165.391 94.3111 161.737 90.2273 159.162 84.9893C156.617 79.7218 155.345 73.5961 155.345 66.6122C155.345 59.6283 156.617 53.473 159.162 48.1463C161.737 42.79 165.317 38.6174 169.904 35.6286C174.521 32.6101 179.907 31.1009 186.062 31.1009C189.613 31.1009 193.12 31.6927 196.582 32.8764C200.045 34.0601 203.196 35.9837 206.037 38.647C208.878 41.2808 211.142 44.7727 212.829 49.1229C214.515 53.473 215.359 58.8293 215.359 65.1918V69.6307H162.802V60.5753H204.705C204.705 56.7282 203.936 53.2955 202.397 50.277C200.888 47.2585 198.728 44.8763 195.916 43.1303C193.135 41.3844 189.85 40.5114 186.062 40.5114C181.889 40.5114 178.279 41.5471 175.231 43.6186C172.213 45.6605 169.89 48.3239 168.262 51.6087C166.634 54.8935 165.821 58.415 165.821 62.1733V68.2102C165.821 73.3594 166.708 77.7243 168.484 81.305C170.289 84.8562 172.79 87.5639 175.986 89.4283C179.182 91.263 182.896 92.1804 187.127 92.1804C189.879 92.1804 192.365 91.7957 194.585 91.0263C196.834 90.2273 198.772 89.0436 200.4 87.4752C202.027 85.8771 203.285 83.8944 204.173 81.527L214.294 84.3679C213.228 87.8007 211.438 90.8191 208.922 93.4233C206.407 95.9979 203.3 98.0102 199.601 99.4602C195.902 100.881 191.744 101.591 187.127 101.591ZM261.657 31.9886V40.8665H224.903V31.9886H261.657ZM235.911 100.17V22.5781C235.911 18.6719 236.828 15.4167 238.663 12.8125C240.498 10.2083 242.88 8.25521 245.81 6.95312C248.74 5.65104 251.832 5 255.087 5C257.662 5 259.763 5.20715 261.39 5.62145C263.018 6.03575 264.231 6.42046 265.03 6.77557L262.012 15.831C261.479 15.6534 260.739 15.4315 259.792 15.1651C258.875 14.8988 257.662 14.7656 256.153 14.7656C252.69 14.7656 250.19 15.6386 248.651 17.3846C247.142 19.1306 246.387 21.6903 246.387 25.0639V100.17H235.911ZM306.701 31.9886V40.8665H269.947V31.9886H306.701ZM280.955 100.17V22.5781C280.955 18.6719 281.872 15.4167 283.707 12.8125C285.542 10.2083 287.924 8.25521 290.854 6.95312C293.784 5.65104 296.876 5 300.131 5C302.706 5 304.807 5.20715 306.434 5.62145C308.062 6.03575 309.275 6.42046 310.074 6.77557L307.056 15.831C306.523 15.6534 305.783 15.4315 304.836 15.1651C303.919 14.8988 302.706 14.7656 301.197 14.7656C297.734 14.7656 295.234 15.6386 293.695 17.3846C292.185 19.1306 291.431 21.6903 291.431 25.0639V100.17H280.955ZM328.13 125.739C326.354 125.739 324.771 125.591 323.38 125.295C321.989 125.028 321.027 124.762 320.495 124.496L323.158 115.263C325.703 115.914 327.952 116.151 329.905 115.973C331.858 115.795 333.59 114.922 335.099 113.354C336.638 111.815 338.043 109.315 339.316 105.852L341.269 100.526L316.056 31.9886H327.419L346.24 86.321H346.951L365.772 31.9886H377.135L348.194 110.114C346.891 113.635 345.279 116.55 343.355 118.858C341.432 121.196 339.197 122.927 336.652 124.052C334.137 125.176 331.296 125.739 328.13 125.739ZM427.539 100.17V9.26137H438.548V49.7443H487.021V9.26137H498.029V100.17H487.021V59.5099H438.548V100.17H427.539ZM561.617 72.294V31.9886H572.093V100.17H561.617V88.6293H560.907C559.309 92.0916 556.823 95.0361 553.449 97.4627C550.076 99.8597 545.814 101.058 540.665 101.058C536.404 101.058 532.616 100.126 529.302 98.2617C525.987 96.3678 523.383 93.5269 521.489 89.739C519.595 85.9215 518.648 81.1127 518.648 75.3125V31.9886H529.124V74.6023C529.124 79.5739 530.515 83.5393 533.297 86.4986C536.108 89.4579 539.689 90.9375 544.039 90.9375C546.643 90.9375 549.291 90.2717 551.984 88.94C554.707 87.6083 556.986 85.5664 558.82 82.8143C560.685 80.0621 561.617 76.5554 561.617 72.294ZM611.344 101.768C607.023 101.768 603.102 100.955 599.581 99.3271C596.059 97.6699 593.263 95.2876 591.191 92.1804C589.12 89.0436 588.084 85.2557 588.084 80.8168C588.084 76.9105 588.853 73.7441 590.392 71.3175C591.931 68.8613 593.988 66.9377 596.562 65.5469C599.137 64.156 601.978 63.1203 605.085 62.4396C608.222 61.7294 611.373 61.1671 614.54 60.7528C618.683 60.2202 622.042 59.8207 624.616 59.5543C627.22 59.2584 629.114 58.7701 630.298 58.0895C631.511 57.4089 632.118 56.2251 632.118 54.5384V54.1832C632.118 49.8035 630.92 46.4003 628.523 43.9737C626.155 41.5471 622.56 40.3338 617.736 40.3338C612.735 40.3338 608.814 41.4287 605.973 43.6186C603.132 45.8085 601.134 48.1463 599.98 50.6321L590.037 47.081C591.813 42.938 594.18 39.7124 597.139 37.4041C600.128 35.0663 603.383 33.4387 606.905 32.5213C610.456 31.5743 613.948 31.1009 617.381 31.1009C619.571 31.1009 622.086 31.3672 624.927 31.8999C627.798 32.4029 630.564 33.4535 633.228 35.0515C635.921 36.6495 638.155 39.0613 639.931 42.2869C641.706 45.5126 642.594 49.8331 642.594 55.2486V100.17H632.118V90.9375H631.585C630.875 92.4171 629.691 94.0004 628.034 95.6871C626.377 97.3739 624.172 98.8092 621.42 99.9929C618.668 101.177 615.309 101.768 611.344 101.768ZM612.942 92.358C617.085 92.358 620.577 91.5442 623.418 89.9166C626.288 88.289 628.449 86.1879 629.899 83.6133C631.378 81.0387 632.118 78.331 632.118 75.4901V65.902C631.674 66.4347 630.698 66.9229 629.188 67.3668C627.709 67.7811 625.992 68.151 624.039 68.4766C622.116 68.7725 620.237 69.0388 618.402 69.2756C616.597 69.4827 615.132 69.6603 614.007 69.8082C611.285 70.1634 608.74 70.7404 606.372 71.5394C604.034 72.3088 602.141 73.4778 600.69 75.0462C599.27 76.585 598.56 78.6861 598.56 81.3494C598.56 84.9893 599.906 87.7415 602.599 89.6058C605.322 91.4406 608.769 92.358 612.942 92.358ZM672.19 59.1548V100.17H661.715V31.9886H671.835V42.6421H672.723C674.321 39.1797 676.748 36.398 680.003 34.2969C683.258 32.1662 687.46 31.1009 692.609 31.1009C697.226 31.1009 701.265 32.0478 704.728 33.9418C708.19 35.8061 710.883 38.647 712.807 42.4645C714.73 46.2524 715.692 51.0464 715.692 56.8466V100.17H705.216V57.5568C705.216 52.2005 703.825 48.0279 701.043 45.0391C698.262 42.0206 694.444 40.5114 689.591 40.5114C686.247 40.5114 683.258 41.2364 680.624 42.6864C678.02 44.1365 675.963 46.2524 674.454 49.0341C672.945 51.8158 672.19 55.1894 672.19 59.1548ZM762.356 127.159C757.296 127.159 752.945 126.508 749.306 125.206C745.666 123.933 742.632 122.247 740.206 120.146C737.809 118.074 735.9 115.855 734.48 113.487L742.825 107.628C743.772 108.871 744.97 110.291 746.42 111.889C747.87 113.517 749.853 114.922 752.368 116.106C754.913 117.319 758.243 117.926 762.356 117.926C767.86 117.926 772.403 116.594 775.983 113.931C779.564 111.268 781.355 107.095 781.355 101.413V87.5639H780.467C779.697 88.8068 778.602 90.3457 777.182 92.1804C775.791 93.9856 773.779 95.5984 771.145 97.0188C768.541 98.4097 765.019 99.1051 760.58 99.1051C755.076 99.1051 750.134 97.803 745.754 95.1989C741.404 92.5947 737.957 88.8068 735.412 83.8352C732.896 78.8636 731.639 72.8267 731.639 65.7244C731.639 58.7405 732.867 52.6592 735.323 47.4805C737.779 42.2721 741.197 38.2475 745.577 35.4066C749.957 32.5361 755.017 31.1009 760.758 31.1009C765.197 31.1009 768.718 31.8407 771.323 33.3203C773.956 34.7704 775.969 36.4276 777.359 38.2919C778.78 40.1267 779.875 41.6359 780.644 42.8196H781.71V31.9886H791.83V102.124C791.83 107.983 790.499 112.747 787.835 116.417C785.202 120.116 781.65 122.824 777.182 124.54C772.743 126.286 767.801 127.159 762.356 127.159ZM762.001 89.6946C766.203 89.6946 769.754 88.7328 772.654 86.8093C775.554 84.8858 777.759 82.1189 779.268 78.5085C780.777 74.8982 781.532 70.5777 781.532 65.5469C781.532 60.6345 780.792 56.2991 779.313 52.5408C777.833 48.7826 775.643 45.8381 772.743 43.7074C769.843 41.5767 766.262 40.5114 762.001 40.5114C757.562 40.5114 753.863 41.6359 750.904 43.8849C747.974 46.134 745.769 49.1525 744.29 52.9403C742.84 56.7282 742.115 60.9304 742.115 65.5469C742.115 70.2817 742.854 74.4691 744.334 78.109C745.843 81.7193 748.063 84.5603 750.992 86.6318C753.952 88.6737 757.621 89.6946 762.001 89.6946ZM83.125 191.045V207.045H91.25V191.045H83.125ZM98 164.295C96.625 169.67 93.625 177.67 91.375 182.67L97.125 184.795C99.625 180.17 102.75 172.92 105.625 166.795L98 164.295ZM70.125 167.295C72.625 172.67 75 180.045 75.625 184.67L82.125 182.295C81.375 177.795 79 170.545 76.125 165.17L70.125 167.295ZM55.375 152.17V261.42H63.875V160.545H115.25V152.17H55.375ZM111.75 152.17V250.67C111.75 252.42 111.25 252.92 109.5 253.045C107.875 253.045 102.25 253.17 96.625 252.92C97.75 255.295 99 259.045 99.25 261.295C107.375 261.295 112.75 261.045 116 259.795C119.375 258.295 120.375 255.795 120.375 250.67V152.17H111.75ZM68.625 184.42V191.795H106.875V184.42H68.625ZM67.625 204.92V212.295H107.625V204.92H67.625ZM72.875 209.045V229.92C72.875 238.92 74.875 241.92 83.75 241.92C85.375 241.92 96.125 241.92 98.375 241.92C101.375 241.92 104.25 241.92 105.875 241.295C105.625 239.42 105.375 235.92 105.125 233.795C103.5 234.17 100.125 234.295 98.25 234.295C96.125 234.295 86 234.295 83.75 234.295C81.375 234.295 81 233.295 81 230.045V209.045H72.875ZM28.25 146.295C25 154.545 19.125 166.795 14.625 174.045L21 176.795C25.875 169.92 31.75 158.67 36.5 149.42L28.25 146.295ZM42.25 160.545C35.375 173.67 23.625 192.295 14.25 203.42L20 206.67C29.375 195.795 41.5 178.045 50.125 164.17L42.25 160.545ZM8.25 172.295C14.875 178.67 22.375 187.545 25.5 193.545L30.875 186.545C27.625 180.795 20 172.42 13.25 166.295L8.25 172.295ZM37.375 189.17C42.375 197.42 47.25 208.545 48.875 215.545L56.25 212.17C54.5 205.295 49.375 194.545 44.125 186.295L37.375 189.17ZM7.25 201.545L8.25 209.92C19.625 209.17 34.625 208.295 49.5 207.295V199.42C33.75 200.295 18.125 201.045 7.25 201.545ZM40.625 219.42C43.625 226.67 46.25 236.17 47 242.295L54.25 240.045C53.375 233.92 50.75 224.545 47.5 217.295L40.625 219.42ZM14.75 217.67C13.375 228.545 11 239.795 7 247.42C8.875 248.295 12.625 249.92 14.125 250.92C18.125 242.92 21 230.92 22.625 219.045L14.75 217.67ZM28 205.17V261.17H36.25V205.17H28ZM160.5 198.795H223.625V210.295H160.5V198.795ZM160.5 217.545H223.625V229.045H160.5V217.545ZM160.5 180.295H223.625V191.545H160.5V180.295ZM150.75 172.795V236.545H233.625V172.795H150.75ZM200.5 244.795C215.125 249.795 230 256.42 238.875 261.295L247.625 254.92C237.875 250.045 221.875 243.545 207.125 238.67L200.5 244.795ZM138.875 152.67V161.295H243.25V152.67H138.875ZM186.5 156.295C185.75 162.045 183.875 170.42 182.125 175.92L191 177.545C193 172.42 195.375 164.795 197.5 157.67L186.5 156.295ZM173.625 238.045C165 243.795 147.875 250.295 134.375 253.92C136.5 255.92 139.375 259.17 140.875 261.17C154.25 257.42 171.25 250.795 182.125 244.17L173.625 238.045ZM260.375 165.92V174.67H372.125V165.92H260.375ZM273.25 206.17V213.545H308.25V206.17H273.25ZM273.25 226.17V233.545H308.25V226.17H273.25ZM329.125 186.92V238.295H338V186.92H329.125ZM304.875 185.795V250.295C304.875 251.92 304.375 252.42 302.625 252.545C300.875 252.67 295.125 252.67 288.875 252.42C290.125 254.795 291.5 258.295 292 260.67C300.5 260.67 306 260.67 309.375 259.17C312.875 257.67 314 255.17 314 250.42V185.795H304.875ZM354.5 183.17V249.545C354.5 251.295 353.875 251.795 351.875 251.92C349.75 252.045 343 252.045 335.375 251.795C336.75 254.295 338.25 258.295 338.75 260.795C348.5 260.795 354.75 260.545 358.625 259.17C362.5 257.67 363.75 255.045 363.75 249.545V183.17H354.5ZM279.75 149.295C284.5 154.67 289.625 162.295 291.625 167.045L300.875 163.67C298.5 158.795 293.25 151.42 288.375 146.045L279.75 149.295ZM344 145.67C340.875 152.42 335.25 162.045 330.75 168.045L339 171.17C343.625 165.295 349.25 156.67 354 148.92L344 145.67ZM268.25 185.795V260.545H277.125V193.92H307.875V185.795H268.25ZM425.875 191.545V200.045H498.5V191.545H425.875ZM449.25 214.92V259.795H456.75V214.92H449.25ZM468.25 214.92V259.545H475.875V214.92H468.25ZM457.25 146.42V178.67H466.25V146.42H457.25ZM429.75 211.67V261.045H438.25V219.795H492V211.67H429.75ZM487.375 211.67V252.295C487.375 253.42 487 253.795 486 253.795C485 253.92 481.875 253.92 478.25 253.795C479.375 255.92 480.5 259.045 480.875 261.295C486.5 261.295 490 261.295 492.75 259.795C495.25 258.67 495.875 256.42 495.875 252.42V211.67H487.375ZM457.25 194.295C456.5 200.17 454.875 208.92 453.375 214.67L461.375 216.795C463.375 211.67 465.625 203.67 468 196.545L457.25 194.295ZM431.25 152.545V182.17H494.25V152.545H485.25V173.92H440V152.545H431.25ZM385.125 171.295V179.92H424.625V171.295H385.125ZM400.875 147.795V175.545H409.375V147.795H400.875ZM382.75 235.67L385 244.92C397 242.045 412.75 238.295 427.75 234.42L426.875 226.295C410.75 229.795 394.125 233.545 382.75 235.67ZM387.875 186.045C390.5 198.795 392.5 215.42 392.5 226.42L400.25 225.17C400.125 214.17 398 197.67 395.125 184.795L387.875 186.045ZM412.875 183.67C411.75 197.545 408.75 217.545 406 229.295L413 231.17C416 219.545 419.375 200.17 421.75 185.545L412.875 183.67ZM516.75 160.295V170.045H616.25V160.295H516.75ZM510.125 242.295V251.67H622.5V242.295H510.125ZM560.625 165.17V246.17H571.125V165.17H560.625ZM709.25 205.17V255.17H718.5V205.17H709.25ZM681.75 201.795V210.045H746.375V201.795H681.75ZM676.375 249.545V257.92H749.125V249.545H676.375ZM684.75 225.045V233.17H743.5V225.045H684.75ZM695.25 159.545H732.875V182.67H695.25V159.545ZM686.5 151.42V190.795H742V151.42H686.5ZM655.25 156.545V260.92H664.375V156.545H655.25ZM634.75 181.42V190.295H680.125V181.42H634.75ZM655.75 184.795C651.25 200.295 641.25 219.795 632.25 229.795C633.875 231.92 636.125 235.795 637 238.42C646.625 226.795 656.625 204.92 661.625 187.295L655.75 184.795ZM673.75 148.045C664.625 152.295 648.125 155.795 634 158.17C635.125 160.295 636.375 163.295 636.875 165.42C651.375 163.42 668.875 159.92 680.375 155.295L673.75 148.045ZM664 197.545L659.625 201.295C663.5 205.67 672.875 217.545 675.875 222.67L681.375 215.295C678.875 212.17 667.125 200.295 664 197.545ZM767.5 165.045V173.17H792.875V191.545H767.5V199.795H801.375V165.045H767.5ZM767.625 211.295V219.42H794.125V240.92H767.625V248.92H802.5V211.295H767.625ZM763.75 165.045V257.42H772.25V165.045H763.75ZM806.25 152.795V161.42H873.125V152.795H806.25ZM779.625 146.17C778.375 152.42 775.625 161.545 773.375 167.545L780.75 169.17C783.75 163.67 787.125 155.045 789.875 147.67L779.625 146.17ZM835.125 156.42V261.045H844V156.42H835.125ZM811 176.795V242.42H819.625V185.295H865.125V176.795H811ZM860.625 176.795V232.42C860.625 233.67 860.25 234.17 858.875 234.17C857.75 234.17 853.75 234.17 849 234.045C850.25 236.42 851.5 239.92 851.75 242.295C858.5 242.295 862.875 242.295 865.75 240.795C868.75 239.295 869.5 236.795 869.5 232.545V176.795H860.625Z" fill="#463B3B"/>
<path d="M126.891 9.26137H137.9V74.2472C137.9 80.0474 136.834 84.9746 134.704 89.0288C132.573 93.083 129.569 96.1606 125.693 98.2617C121.816 100.363 117.244 101.413 111.976 101.413C107.005 101.413 102.581 100.511 98.7041 98.7056C94.8274 96.8709 91.7793 94.2667 89.5599 90.8931C87.3404 87.5195 86.2307 83.5097 86.2307 78.8636H97.0617C97.0617 81.4382 97.6979 83.6873 98.9704 85.6108C100.272 87.5047 102.048 88.9844 104.297 90.0497C106.546 91.1151 109.106 91.6477 111.976 91.6477C115.143 91.6477 117.836 90.9819 120.055 89.6502C122.275 88.3185 123.962 86.3654 125.116 83.7908C126.299 81.1867 126.891 78.0054 126.891 74.2472V9.26137ZM187.127 101.591C180.558 101.591 174.891 100.141 170.126 97.2408C165.391 94.3111 161.737 90.2273 159.162 84.9893C156.617 79.7218 155.345 73.5961 155.345 66.6122C155.345 59.6283 156.617 53.473 159.162 48.1463C161.737 42.79 165.317 38.6174 169.904 35.6286C174.521 32.6101 179.907 31.1009 186.062 31.1009C189.613 31.1009 193.12 31.6927 196.582 32.8764C200.045 34.0601 203.196 35.9837 206.037 38.647C208.878 41.2808 211.142 44.7727 212.829 49.1229C214.515 53.473 215.359 58.8293 215.359 65.1918V69.6307H162.802V60.5753H204.705C204.705 56.7282 203.936 53.2955 202.397 50.277C200.888 47.2585 198.728 44.8763 195.916 43.1303C193.135 41.3844 189.85 40.5114 186.062 40.5114C181.889 40.5114 178.279 41.5471 175.231 43.6186C172.213 45.6605 169.89 48.3239 168.262 51.6087C166.634 54.8935 165.821 58.415 165.821 62.1733V68.2102C165.821 73.3594 166.708 77.7243 168.484 81.305C170.289 84.8562 172.79 87.5639 175.986 89.4283C179.182 91.263 182.896 92.1804 187.127 92.1804C189.879 92.1804 192.365 91.7957 194.585 91.0263C196.834 90.2273 198.772 89.0436 200.4 87.4752C202.027 85.8771 203.285 83.8944 204.173 81.527L214.294 84.3679C213.228 87.8007 211.438 90.8191 208.922 93.4233C206.407 95.9979 203.3 98.0102 199.601 99.4602C195.902 100.881 191.744 101.591 187.127 101.591ZM261.657 31.9886V40.8665H224.903V31.9886H261.657ZM235.911 100.17V22.5781C235.911 18.6719 236.828 15.4167 238.663 12.8125C240.498 10.2083 242.88 8.25521 245.81 6.95312C248.74 5.65104 251.832 5 255.087 5C257.662 5 259.763 5.20715 261.39 5.62145C263.018 6.03575 264.231 6.42046 265.03 6.77557L262.012 15.831C261.479 15.6534 260.739 15.4315 259.792 15.1651C258.875 14.8988 257.662 14.7656 256.153 14.7656C252.69 14.7656 250.19 15.6386 248.651 17.3846C247.142 19.1306 246.387 21.6903 246.387 25.0639V100.17H235.911ZM306.701 31.9886V40.8665H269.947V31.9886H306.701ZM280.955 100.17V22.5781C280.955 18.6719 281.872 15.4167 283.707 12.8125C285.542 10.2083 287.924 8.25521 290.854 6.95312C293.784 5.65104 296.876 5 300.131 5C302.706 5 304.807 5.20715 306.434 5.62145C308.062 6.03575 309.275 6.42046 310.074 6.77557L307.056 15.831C306.523 15.6534 305.783 15.4315 304.836 15.1651C303.919 14.8988 302.706 14.7656 301.197 14.7656C297.734 14.7656 295.234 15.6386 293.695 17.3846C292.185 19.1306 291.431 21.6903 291.431 25.0639V100.17H280.955ZM328.13 125.739C326.354 125.739 324.771 125.591 323.38 125.295C321.989 125.028 321.027 124.762 320.495 124.496L323.158 115.263C325.703 115.914 327.952 116.151 329.905 115.973C331.858 115.795 333.59 114.922 335.099 113.354C336.638 111.815 338.043 109.315 339.316 105.852L341.269 100.526L316.056 31.9886H327.419L346.24 86.321H346.951L365.772 31.9886H377.135L348.194 110.114C346.891 113.635 345.279 116.55 343.355 118.858C341.432 121.196 339.197 122.927 336.652 124.052C334.137 125.176 331.296 125.739 328.13 125.739ZM427.539 100.17V9.26137H438.548V49.7443H487.021V9.26137H498.029V100.17H487.021V59.5099H438.548V100.17H427.539ZM561.617 72.294V31.9886H572.093V100.17H561.617V88.6293H560.907C559.309 92.0916 556.823 95.0361 553.449 97.4627C550.076 99.8597 545.814 101.058 540.665 101.058C536.404 101.058 532.616 100.126 529.302 98.2617C525.987 96.3678 523.383 93.5269 521.489 89.739C519.595 85.9215 518.648 81.1127 518.648 75.3125V31.9886H529.124V74.6023C529.124 79.5739 530.515 83.5393 533.297 86.4986C536.108 89.4579 539.689 90.9375 544.039 90.9375C546.643 90.9375 549.291 90.2717 551.984 88.94C554.707 87.6083 556.986 85.5664 558.82 82.8143C560.685 80.0621 561.617 76.5554 561.617 72.294ZM611.344 101.768C607.023 101.768 603.102 100.955 599.581 99.3271C596.059 97.6699 593.263 95.2876 591.191 92.1804C589.12 89.0436 588.084 85.2557 588.084 80.8168C588.084 76.9105 588.853 73.7441 590.392 71.3175C591.931 68.8613 593.988 66.9377 596.562 65.5469C599.137 64.156 601.978 63.1203 605.085 62.4396C608.222 61.7294 611.373 61.1671 614.54 60.7528C618.683 60.2202 622.042 59.8207 624.616 59.5543C627.22 59.2584 629.114 58.7701 630.298 58.0895C631.511 57.4089 632.118 56.2251 632.118 54.5384V54.1832C632.118 49.8035 630.92 46.4003 628.523 43.9737C626.155 41.5471 622.56 40.3338 617.736 40.3338C612.735 40.3338 608.814 41.4287 605.973 43.6186C603.132 45.8085 601.134 48.1463 599.98 50.6321L590.037 47.081C591.813 42.938 594.18 39.7124 597.139 37.4041C600.128 35.0663 603.383 33.4387 606.905 32.5213C610.456 31.5743 613.948 31.1009 617.381 31.1009C619.571 31.1009 622.086 31.3672 624.927 31.8999C627.798 32.4029 630.564 33.4535 633.228 35.0515C635.921 36.6495 638.155 39.0613 639.931 42.2869C641.706 45.5126 642.594 49.8331 642.594 55.2486V100.17H632.118V90.9375H631.585C630.875 92.4171 629.691 94.0004 628.034 95.6871C626.377 97.3739 624.172 98.8092 621.42 99.9929C618.668 101.177 615.309 101.768 611.344 101.768ZM612.942 92.358C617.085 92.358 620.577 91.5442 623.418 89.9166C626.288 88.289 628.449 86.1879 629.899 83.6133C631.378 81.0387 632.118 78.331 632.118 75.4901V65.902C631.674 66.4347 630.698 66.9229 629.188 67.3668C627.709 67.7811 625.992 68.151 624.039 68.4766C622.116 68.7725 620.237 69.0388 618.402 69.2756C616.597 69.4827 615.132 69.6603 614.007 69.8082C611.285 70.1634 608.74 70.7404 606.372 71.5394C604.034 72.3088 602.141 73.4778 600.69 75.0462C599.27 76.585 598.56 78.6861 598.56 81.3494C598.56 84.9893 599.906 87.7415 602.599 89.6058C605.322 91.4406 608.769 92.358 612.942 92.358ZM672.19 59.1548V100.17H661.715V31.9886H671.835V42.6421H672.723C674.321 39.1797 676.748 36.398 680.003 34.2969C683.258 32.1662 687.46 31.1009 692.609 31.1009C697.226 31.1009 701.265 32.0478 704.728 33.9418C708.19 35.8061 710.883 38.647 712.807 42.4645C714.73 46.2524 715.692 51.0464 715.692 56.8466V100.17H705.216V57.5568C705.216 52.2005 703.825 48.0279 701.043 45.0391C698.262 42.0206 694.444 40.5114 689.591 40.5114C686.247 40.5114 683.258 41.2364 680.624 42.6864C678.02 44.1365 675.963 46.2524 674.454 49.0341C672.945 51.8158 672.19 55.1894 672.19 59.1548ZM762.356 127.159C757.296 127.159 752.945 126.508 749.306 125.206C745.666 123.933 742.632 122.247 740.206 120.146C737.809 118.074 735.9 115.855 734.48 113.487L742.825 107.628C743.772 108.871 744.97 110.291 746.42 111.889C747.87 113.517 749.853 114.922 752.368 116.106C754.913 117.319 758.243 117.926 762.356 117.926C767.86 117.926 772.403 116.594 775.983 113.931C779.564 111.268 781.355 107.095 781.355 101.413V87.5639H780.467C779.697 88.8068 778.602 90.3457 777.182 92.1804C775.791 93.9856 773.779 95.5984 771.145 97.0188C768.541 98.4097 765.019 99.1051 760.58 99.1051C755.076 99.1051 750.134 97.803 745.754 95.1989C741.404 92.5947 737.957 88.8068 735.412 83.8352C732.896 78.8636 731.639 72.8267 731.639 65.7244C731.639 58.7405 732.867 52.6592 735.323 47.4805C737.779 42.2721 741.197 38.2475 745.577 35.4066C749.957 32.5361 755.017 31.1009 760.758 31.1009C765.197 31.1009 768.718 31.8407 771.323 33.3203C773.956 34.7704 775.969 36.4276 777.359 38.2919C778.78 40.1267 779.875 41.6359 780.644 42.8196H781.71V31.9886H791.83V102.124C791.83 107.983 790.499 112.747 787.835 116.417C785.202 120.116 781.65 122.824 777.182 124.54C772.743 126.286 767.801 127.159 762.356 127.159ZM762.001 89.6946C766.203 89.6946 769.754 88.7328 772.654 86.8093C775.554 84.8858 777.759 82.1189 779.268 78.5085C780.777 74.8982 781.532 70.5777 781.532 65.5469C781.532 60.6345 780.792 56.2991 779.313 52.5408C777.833 48.7826 775.643 45.8381 772.743 43.7074C769.843 41.5767 766.262 40.5114 762.001 40.5114C757.562 40.5114 753.863 41.6359 750.904 43.8849C747.974 46.134 745.769 49.1525 744.29 52.9403C742.84 56.7282 742.115 60.9304 742.115 65.5469C742.115 70.2817 742.854 74.4691 744.334 78.109C745.843 81.7193 748.063 84.5603 750.992 86.6318C753.952 88.6737 757.621 89.6946 762.001 89.6946ZM83.125 191.045V207.045H91.25V191.045H83.125ZM98 164.295C96.625 169.67 93.625 177.67 91.375 182.67L97.125 184.795C99.625 180.17 102.75 172.92 105.625 166.795L98 164.295ZM70.125 167.295C72.625 172.67 75 180.045 75.625 184.67L82.125 182.295C81.375 177.795 79 170.545 76.125 165.17L70.125 167.295ZM55.375 152.17V261.42H63.875V160.545H115.25V152.17H55.375ZM111.75 152.17V250.67C111.75 252.42 111.25 252.92 109.5 253.045C107.875 253.045 102.25 253.17 96.625 252.92C97.75 255.295 99 259.045 99.25 261.295C107.375 261.295 112.75 261.045 116 259.795C119.375 258.295 120.375 255.795 120.375 250.67V152.17H111.75ZM68.625 184.42V191.795H106.875V184.42H68.625ZM67.625 204.92V212.295H107.625V204.92H67.625ZM72.875 209.045V229.92C72.875 238.92 74.875 241.92 83.75 241.92C85.375 241.92 96.125 241.92 98.375 241.92C101.375 241.92 104.25 241.92 105.875 241.295C105.625 239.42 105.375 235.92 105.125 233.795C103.5 234.17 100.125 234.295 98.25 234.295C96.125 234.295 86 234.295 83.75 234.295C81.375 234.295 81 233.295 81 230.045V209.045H72.875ZM28.25 146.295C25 154.545 19.125 166.795 14.625 174.045L21 176.795C25.875 169.92 31.75 158.67 36.5 149.42L28.25 146.295ZM42.25 160.545C35.375 173.67 23.625 192.295 14.25 203.42L20 206.67C29.375 195.795 41.5 178.045 50.125 164.17L42.25 160.545ZM8.25 172.295C14.875 178.67 22.375 187.545 25.5 193.545L30.875 186.545C27.625 180.795 20 172.42 13.25 166.295L8.25 172.295ZM37.375 189.17C42.375 197.42 47.25 208.545 48.875 215.545L56.25 212.17C54.5 205.295 49.375 194.545 44.125 186.295L37.375 189.17ZM7.25 201.545L8.25 209.92C19.625 209.17 34.625 208.295 49.5 207.295V199.42C33.75 200.295 18.125 201.045 7.25 201.545ZM40.625 219.42C43.625 226.67 46.25 236.17 47 242.295L54.25 240.045C53.375 233.92 50.75 224.545 47.5 217.295L40.625 219.42ZM14.75 217.67C13.375 228.545 11 239.795 7 247.42C8.875 248.295 12.625 249.92 14.125 250.92C18.125 242.92 21 230.92 22.625 219.045L14.75 217.67ZM28 205.17V261.17H36.25V205.17H28ZM160.5 198.795H223.625V210.295H160.5V198.795ZM160.5 217.545H223.625V229.045H160.5V217.545ZM160.5 180.295H223.625V191.545H160.5V180.295ZM150.75 172.795V236.545H233.625V172.795H150.75ZM200.5 244.795C215.125 249.795 230 256.42 238.875 261.295L247.625 254.92C237.875 250.045 221.875 243.545 207.125 238.67L200.5 244.795ZM138.875 152.67V161.295H243.25V152.67H138.875ZM186.5 156.295C185.75 162.045 183.875 170.42 182.125 175.92L191 177.545C193 172.42 195.375 164.795 197.5 157.67L186.5 156.295ZM173.625 238.045C165 243.795 147.875 250.295 134.375 253.92C136.5 255.92 139.375 259.17 140.875 261.17C154.25 257.42 171.25 250.795 182.125 244.17L173.625 238.045ZM260.375 165.92V174.67H372.125V165.92H260.375ZM273.25 206.17V213.545H308.25V206.17H273.25ZM273.25 226.17V233.545H308.25V226.17H273.25ZM329.125 186.92V238.295H338V186.92H329.125ZM304.875 185.795V250.295C304.875 251.92 304.375 252.42 302.625 252.545C300.875 252.67 295.125 252.67 288.875 252.42C290.125 254.795 291.5 258.295 292 260.67C300.5 260.67 306 260.67 309.375 259.17C312.875 257.67 314 255.17 314 250.42V185.795H304.875ZM354.5 183.17V249.545C354.5 251.295 353.875 251.795 351.875 251.92C349.75 252.045 343 252.045 335.375 251.795C336.75 254.295 338.25 258.295 338.75 260.795C348.5 260.795 354.75 260.545 358.625 259.17C362.5 257.67 363.75 255.045 363.75 249.545V183.17H354.5ZM279.75 149.295C284.5 154.67 289.625 162.295 291.625 167.045L300.875 163.67C298.5 158.795 293.25 151.42 288.375 146.045L279.75 149.295ZM344 145.67C340.875 152.42 335.25 162.045 330.75 168.045L339 171.17C343.625 165.295 349.25 156.67 354 148.92L344 145.67ZM268.25 185.795V260.545H277.125V193.92H307.875V185.795H268.25ZM425.875 191.545V200.045H498.5V191.545H425.875ZM449.25 214.92V259.795H456.75V214.92H449.25ZM468.25 214.92V259.545H475.875V214.92H468.25ZM457.25 146.42V178.67H466.25V146.42H457.25ZM429.75 211.67V261.045H438.25V219.795H492V211.67H429.75ZM487.375 211.67V252.295C487.375 253.42 487 253.795 486 253.795C485 253.92 481.875 253.92 478.25 253.795C479.375 255.92 480.5 259.045 480.875 261.295C486.5 261.295 490 261.295 492.75 259.795C495.25 258.67 495.875 256.42 495.875 252.42V211.67H487.375ZM457.25 194.295C456.5 200.17 454.875 208.92 453.375 214.67L461.375 216.795C463.375 211.67 465.625 203.67 468 196.545L457.25 194.295ZM431.25 152.545V182.17H494.25V152.545H485.25V173.92H440V152.545H431.25ZM385.125 171.295V179.92H424.625V171.295H385.125ZM400.875 147.795V175.545H409.375V147.795H400.875ZM382.75 235.67L385 244.92C397 242.045 412.75 238.295 427.75 234.42L426.875 226.295C410.75 229.795 394.125 233.545 382.75 235.67ZM387.875 186.045C390.5 198.795 392.5 215.42 392.5 226.42L400.25 225.17C400.125 214.17 398 197.67 395.125 184.795L387.875 186.045ZM412.875 183.67C411.75 197.545 408.75 217.545 406 229.295L413 231.17C416 219.545 419.375 200.17 421.75 185.545L412.875 183.67ZM516.75 160.295V170.045H616.25V160.295H516.75ZM510.125 242.295V251.67H622.5V242.295H510.125ZM560.625 165.17V246.17H571.125V165.17H560.625ZM709.25 205.17V255.17H718.5V205.17H709.25ZM681.75 201.795V210.045H746.375V201.795H681.75ZM676.375 249.545V257.92H749.125V249.545H676.375ZM684.75 225.045V233.17H743.5V225.045H684.75ZM695.25 159.545H732.875V182.67H695.25V159.545ZM686.5 151.42V190.795H742V151.42H686.5ZM655.25 156.545V260.92H664.375V156.545H655.25ZM634.75 181.42V190.295H680.125V181.42H634.75ZM655.75 184.795C651.25 200.295 641.25 219.795 632.25 229.795C633.875 231.92 636.125 235.795 637 238.42C646.625 226.795 656.625 204.92 661.625 187.295L655.75 184.795ZM673.75 148.045C664.625 152.295 648.125 155.795 634 158.17C635.125 160.295 636.375 163.295 636.875 165.42C651.375 163.42 668.875 159.92 680.375 155.295L673.75 148.045ZM664 197.545L659.625 201.295C663.5 205.67 672.875 217.545 675.875 222.67L681.375 215.295C678.875 212.17 667.125 200.295 664 197.545ZM767.5 165.045V173.17H792.875V191.545H767.5V199.795H801.375V165.045H767.5ZM767.625 211.295V219.42H794.125V240.92H767.625V248.92H802.5V211.295H767.625ZM763.75 165.045V257.42H772.25V165.045H763.75ZM806.25 152.795V161.42H873.125V152.795H806.25ZM779.625 146.17C778.375 152.42 775.625 161.545 773.375 167.545L780.75 169.17C783.75 163.67 787.125 155.045 789.875 147.67L779.625 146.17ZM835.125 156.42V261.045H844V156.42H835.125ZM811 176.795V242.42H819.625V185.295H865.125V176.795H811ZM860.625 176.795V232.42C860.625 233.67 860.25 234.17 858.875 234.17C857.75 234.17 853.75 234.17 849 234.045C850.25 236.42 851.5 239.92 851.75 242.295C858.5 242.295 862.875 242.295 865.75 240.795C868.75 239.295 869.5 236.795 869.5 232.545V176.795H860.625Z" stroke="white" stroke-width="10" mask="url(#path-1-outside-1_62_160)"/>
</svg>
